<svg xmlns="http://www.w3.org/2000/svg" xmlns:xlink="http://www.w3.org/1999/xlink" width="500" zoomAndPan="magnify" viewBox="0 0 375 374.999991" height="500" preserveAspectRatio="xMidYMid meet" version="1.0"><defs><g/><clipPath id="430846d3b2"><path d="M 124.9375 95.59375 L 250.1875 95.59375 L 250.1875 214.84375 L 124.9375 214.84375 Z M 124.9375 95.59375 " clip-rule="nonzero"/></clipPath></defs><rect x="-37.5" width="450" fill="#ffffff" y="-37.499999" height="449.999989" fill-opacity="1"/><rect x="-37.5" width="450" fill="#ffffff" y="-37.499999" height="449.999989" fill-opacity="1"/><g clip-path="url(#430846d3b2)"><path fill="#eb5a49" d="M 167.003906 196.195312 C 170.316406 196.195312 173.003906 198.886719 173.003906 202.199219 C 173.003906 205.515625 170.316406 208.203125 167.003906 208.203125 C 163.6875 208.203125 161 205.515625 161 202.199219 C 161 198.886719 163.6875 196.195312 167.003906 196.195312 Z M 207.996094 113.988281 C 204.683594 113.988281 201.992188 111.300781 201.992188 107.984375 C 201.992188 104.671875 204.683594 101.984375 207.996094 101.984375 C 211.3125 101.984375 214 104.671875 214 107.984375 C 214 111.300781 211.3125 113.988281 207.996094 113.988281 Z M 250.003906 154.671875 C 249.972656 150.039062 237.550781 145.167969 237.550781 140.945312 C 237.550781 137.511719 237.945312 133.949219 238.34375 130.25 C 238.871094 126.6875 239.269531 122.992188 239.269531 119.558594 C 239.269531 107.285156 231.347656 102.003906 219.601562 102.003906 L 218.859375 102.003906 C 216.746094 98.179688 212.675781 95.589844 207.996094 95.589844 C 201.152344 95.589844 195.601562 101.140625 195.601562 107.984375 C 195.601562 114.832031 201.152344 120.382812 207.996094 120.382812 C 213.621094 120.382812 218.371094 116.636719 219.886719 111.503906 C 225.417969 112.214844 227.386719 115.902344 227.386719 121.671875 C 227.386719 124.3125 226.992188 127.214844 226.464844 130.121094 C 226.199219 133.023438 225.671875 136.058594 225.671875 139.625 C 225.539062 148.863281 236.210938 149.976562 236.230469 154.542969 C 236.253906 159.140625 225.539062 160.347656 225.671875 169.585938 C 225.671875 173.152344 226.199219 176.320312 226.464844 179.222656 C 226.992188 182.128906 227.386719 184.898438 227.386719 187.539062 C 227.386719 192.09375 226.128906 195.261719 223.183594 196.835938 L 159.226562 102.003906 L 153.714844 102.003906 L 153.65625 102.046875 C 142.875 102.554688 135.730469 107.902344 135.730469 119.558594 C 135.730469 122.992188 136.128906 126.6875 136.65625 130.25 C 137.050781 133.949219 137.449219 137.511719 137.449219 140.945312 C 137.449219 145.167969 125.027344 150.039062 124.996094 154.671875 C 124.964844 159.28125 137.449219 164.4375 137.449219 168.269531 C 137.449219 171.699219 137.050781 175.132812 136.65625 178.695312 C 136.128906 182.257812 135.730469 185.957031 135.730469 189.253906 C 135.730469 202.585938 143.914062 207.339844 155.398438 207.339844 L 155.71875 207.339844 C 157.671875 211.621094 161.988281 214.597656 167.003906 214.597656 C 173.847656 214.597656 179.402344 209.046875 179.402344 202.199219 C 179.402344 195.351562 173.847656 189.800781 167.003906 189.800781 C 161.679688 189.800781 157.140625 193.15625 155.382812 197.867188 C 149.859375 197.238281 147.613281 193.625 147.613281 187.539062 C 147.613281 184.898438 148.007812 182.128906 148.535156 179.222656 C 148.800781 176.320312 149.328125 173.152344 149.328125 169.585938 C 149.460938 160.347656 138.746094 159.140625 138.769531 154.542969 C 138.789062 149.976562 149.460938 148.863281 149.328125 139.625 C 149.328125 136.058594 148.800781 133.023438 148.535156 130.121094 C 148.007812 127.214844 147.613281 124.3125 147.613281 121.671875 C 147.613281 117.253906 148.769531 114.058594 151.796875 112.480469 L 215.773438 207.339844 L 219.601562 207.339844 C 231.082031 207.339844 239.269531 202.585938 239.269531 189.253906 C 239.269531 185.957031 238.871094 182.261719 238.34375 178.695312 C 237.945312 175.132812 237.550781 171.699219 237.550781 168.269531 C 237.550781 164.4375 250.03125 159.28125 250.003906 154.671875 " fill-opacity="1" fill-rule="nonzero"/></g><g fill="#eb5a49" fill-opacity="1"><g transform="translate(78.849221, 251.556502)"><g><path d="M 21 -20 L 21 -16 L 5 -16 L 5 -12 L 21 -12 L 21 -8 L 5 -8 L 5 0 L 1 0 L 1 -16 C 1 -16.726562 1.175781 -17.394531 1.53125 -18 C 1.894531 -18.613281 2.378906 -19.097656 2.984375 -19.453125 C 3.597656 -19.816406 4.269531 -20 5 -20 Z M 21 -20 "/></g></g></g><g fill="#eb5a49" fill-opacity="1"><g transform="translate(101.770741, 251.556502)"><g><path d="M 5 0 L 1 0 L 1 -18 C 1 -18.550781 1.191406 -19.019531 1.578125 -19.40625 C 1.972656 -19.800781 2.445312 -20 3 -20 C 3.550781 -20 4.023438 -19.800781 4.421875 -19.40625 L 17 -6.828125 L 17 -20 L 21 -20 L 21 -2 C 21 -1.445312 20.800781 -0.972656 20.40625 -0.578125 C 20.019531 -0.191406 19.550781 0 19 0 C 18.445312 0 17.972656 -0.195312 17.578125 -0.59375 L 5 -13.171875 Z M 5 0 "/></g></g></g><g fill="#011c43" fill-opacity="1"><g transform="translate(124.692968, 251.556502)"><g/></g></g><g fill="#011c43" fill-opacity="1"><g transform="translate(136.616236, 251.556502)"><g><path d="M 17 0 L 1 0 L 1 -20 L 17 -20 C 17.726562 -20 18.394531 -19.816406 19 -19.453125 C 19.613281 -19.097656 20.097656 -18.613281 20.453125 -18 C 20.816406 -17.394531 21 -16.726562 21 -16 L 21 -4 C 21 -3.269531 20.816406 -2.597656 20.453125 -1.984375 C 20.097656 -1.378906 19.613281 -0.894531 19 -0.53125 C 18.394531 -0.175781 17.726562 0 17 0 Z M 5 -16 L 5 -4 L 17 -4 L 17 -16 Z M 5 -16 "/></g></g></g><g fill="#011c43" fill-opacity="1"><g transform="translate(159.537756, 251.556502)"><g><path d="M 21 0 L 1 0 L 1 -4 L 9 -4 L 9 -16 L 1 -16 L 1 -20 L 21 -20 L 21 -16 L 13 -16 L 13 -4 L 21 -4 Z M 21 0 "/></g></g></g><g fill="#011c43" fill-opacity="1"><g transform="translate(182.459278, 251.556502)"><g><path d="M 21 -20 L 21 -16 L 5 -16 L 5 -4 L 17 -4 L 17 -8 L 9 -8 L 9 -12 L 21 -12 L 21 -4 C 21 -3.28125 20.816406 -2.613281 20.453125 -2 C 20.097656 -1.394531 19.617188 -0.910156 19.015625 -0.546875 C 18.421875 -0.179688 17.75 0 17 0 L 5 0 C 4.269531 0 3.597656 -0.175781 2.984375 -0.53125 C 2.378906 -0.894531 1.894531 -1.378906 1.53125 -1.984375 C 1.175781 -2.597656 1 -3.269531 1 -4 L 1 -16 C 1 -16.726562 1.175781 -17.394531 1.53125 -18 C 1.894531 -18.613281 2.378906 -19.097656 2.984375 -19.453125 C 3.597656 -19.816406 4.269531 -20 5 -20 Z M 21 -20 "/></g></g></g><g fill="#011c43" fill-opacity="1"><g transform="translate(205.380796, 251.556502)"><g><path d="M 21 0 L 1 0 L 1 -4 L 9 -4 L 9 -16 L 1 -16 L 1 -20 L 21 -20 L 21 -16 L 13 -16 L 13 -4 L 21 -4 Z M 21 0 "/></g></g></g><g fill="#011c43" fill-opacity="1"><g transform="translate(228.302321, 251.556502)"><g><path d="M 21 -20 L 21 -16 L 13 -16 L 13 0 L 9 0 L 9 -16 L 1 -16 L 1 -20 Z M 21 -20 "/></g></g></g><g fill="#011c43" fill-opacity="1"><g transform="translate(251.22384, 251.556502)"><g><path d="M 5 -20 L 17 -20 C 17.726562 -20 18.394531 -19.816406 19 -19.453125 C 19.613281 -19.097656 20.097656 -18.613281 20.453125 -18 C 20.816406 -17.394531 21 -16.726562 21 -16 L 21 0 L 17 0 L 17 -8 L 5 -8 L 5 0 L 1 0 L 1 -16 C 1 -16.726562 1.175781 -17.394531 1.53125 -18 C 1.894531 -18.613281 2.378906 -19.097656 2.984375 -19.453125 C 3.597656 -19.816406 4.269531 -20 5 -20 Z M 5 -16 L 5 -12 L 17 -12 L 17 -16 Z M 5 -16 "/></g></g></g><g fill="#011c43" fill-opacity="1"><g transform="translate(274.145359, 251.556502)"><g><path d="M 21 0 L 5 0 C 4.269531 0 3.597656 -0.175781 2.984375 -0.53125 C 2.378906 -0.894531 1.894531 -1.378906 1.53125 -1.984375 C 1.175781 -2.597656 1 -3.269531 1 -4 L 1 -20 L 5 -20 L 5 -4 L 21 -4 Z M 21 0 "/></g></g></g></svg>